<?xml version="1.0" standalone="no"?>
<!DOCTYPE svg PUBLIC "-//W3C//DTD SVG 20010904//EN"
 "http://www.w3.org/TR/2001/REC-SVG-20010904/DTD/svg10.dtd">
<svg version="1.0" xmlns="http://www.w3.org/2000/svg"
 width="64.000000pt" height="64.000000pt" viewBox="0 0 64.000000 64.000000"
 preserveAspectRatio="xMidYMid meet">

<g transform="translate(0.000000,64.000000) scale(0.100000,-0.100000)"
fill="#000000" stroke="none">
<path d="M63 565 c-11 -30 12 -36 148 -33 126 3 134 4 134 23 0 19 -8 20 -138
23 -118 2 -138 0 -144 -13z"/>
<path d="M143 485 c-3 -9 -1 -21 4 -26 5 -5 82 -8 184 -7 166 3 174 4 174 23
0 19 -8 20 -178 23 -155 2 -178 0 -184 -13z"/>
<path d="M143 405 c-11 -30 12 -36 148 -33 126 3 134 4 134 23 0 19 -8 20
-138 23 -118 2 -138 0 -144 -13z"/>
<path d="M223 325 c-3 -9 -1 -21 4 -26 5 -5 82 -8 184 -7 166 3 174 4 174 23
0 19 -8 20 -178 23 -155 2 -178 0 -184 -13z"/>
<path d="M223 245 c-3 -9 -1 -21 4 -26 5 -5 82 -8 184 -7 166 3 174 4 174 23
0 19 -8 20 -178 23 -155 2 -178 0 -184 -13z"/>
<path d="M143 165 c-11 -29 12 -36 108 -33 86 3 94 5 94 23 0 18 -8 20 -98 23
-82 2 -98 0 -104 -13z"/>
<path d="M63 85 c-11 -30 12 -36 148 -33 126 3 134 4 134 23 0 19 -8 20 -138
23 -118 2 -138 0 -144 -13z"/>
</g>
</svg>
