<?xml version="1.0" standalone="no"?>
<!DOCTYPE svg PUBLIC "-//W3C//DTD SVG 20010904//EN"
 "http://www.w3.org/TR/2001/REC-SVG-20010904/DTD/svg10.dtd">
<svg version="1.0" xmlns="http://www.w3.org/2000/svg"
 width="64.000000pt" height="64.000000pt" viewBox="0 0 64.000000 64.000000"
 preserveAspectRatio="xMidYMid meet">

<g transform="translate(0.000000,64.000000) scale(0.100000,-0.100000)"
fill="#000000" stroke="none">
<path d="M63 484 c-3 -8 -1 -20 4 -25 5 -5 112 -8 264 -7 246 3 254 4 254 23
0 19 -8 20 -258 23 -227 2 -258 0 -264 -14z"/>
<path d="M63 404 c-3 -8 -1 -20 4 -25 5 -5 112 -8 264 -7 246 3 254 4 254 23
0 19 -8 20 -258 23 -227 2 -258 0 -264 -14z"/>
<path d="M63 324 c-3 -8 -1 -20 4 -25 5 -5 112 -8 264 -7 246 3 254 4 254 23
0 19 -8 20 -258 23 -227 2 -258 0 -264 -14z"/>
<path d="M63 245 c-3 -9 -1 -21 4 -26 5 -5 82 -8 184 -7 166 3 174 4 174 23 0
19 -8 20 -178 23 -155 2 -178 0 -184 -13z"/>
</g>
</svg>
