<?xml version="1.0" standalone="no"?>
<!DOCTYPE svg PUBLIC "-//W3C//DTD SVG 20010904//EN"
 "http://www.w3.org/TR/2001/REC-SVG-20010904/DTD/svg10.dtd">
<svg version="1.0" xmlns="http://www.w3.org/2000/svg"
 width="64.000000pt" height="64.000000pt" viewBox="0 0 64.000000 64.000000"
 preserveAspectRatio="xMidYMid meet">

<g transform="translate(0.000000,64.000000) scale(0.100000,-0.100000)"
fill="#000000" stroke="none">
<path d="M122 504 c-17 -12 -22 -25 -22 -59 0 -55 -15 -95 -35 -95 -22 0 -19
-38 4 -45 22 -7 31 -33 31 -92 0 -46 25 -73 67 -73 30 0 33 45 3 53 -16 4 -20
14 -20 49 0 24 -7 54 -16 66 -14 20 -14 24 0 44 9 12 16 42 16 66 0 35 4 45
20 49 13 3 20 14 20 29 0 29 -33 33 -68 8z"/>
<path d="M241 383 c-19 -76 -36 -144 -39 -151 -3 -10 2 -13 19 -10 21 3 26 16
60 151 36 146 37 147 15 147 -20 0 -25 -13 -55 -137z"/>
<path d="M361 383 c-19 -76 -36 -144 -39 -151 -3 -10 2 -13 19 -10 21 3 26 16
60 151 36 146 37 147 15 147 -20 0 -25 -13 -55 -137z"/>
<path d="M450 496 c0 -15 7 -26 20 -29 16 -4 20 -14 20 -44 0 -21 7 -50 14
-65 13 -24 13 -32 0 -55 -7 -16 -14 -45 -14 -66 0 -30 -4 -40 -20 -44 -30 -8
-27 -53 3 -53 44 0 64 25 69 86 4 43 10 62 26 75 27 22 28 36 2 57 -15 12 -23
34 -27 75 -6 62 -26 87 -70 87 -18 0 -23 -6 -23 -24z"/>
</g>
</svg>
