<?xml version="1.0" standalone="no"?>
<!DOCTYPE svg PUBLIC "-//W3C//DTD SVG 20010904//EN"
 "http://www.w3.org/TR/2001/REC-SVG-20010904/DTD/svg10.dtd">
<svg version="1.0" xmlns="http://www.w3.org/2000/svg"
 width="64.000000pt" height="64.000000pt" viewBox="0 0 64.000000 64.000000"
 preserveAspectRatio="xMidYMid meet">

<g transform="translate(0.000000,64.000000) scale(0.100000,-0.100000)"
fill="#000000" stroke="none">
<path d="M116 491 c-10 -11 -20 -43 -23 -76 -4 -40 -11 -60 -24 -68 -25 -15
-24 -39 1 -55 12 -7 20 -23 20 -40 0 -38 17 -94 32 -104 7 -4 25 -8 41 -8 22
0 27 4 27 25 0 18 -5 25 -19 25 -16 0 -21 10 -27 48 -3 26 -11 55 -15 64 -5
10 -5 26 0 40 6 13 13 44 16 71 5 38 10 47 26 47 14 0 19 7 19 25 0 21 -5 25
-28 25 -16 0 -37 -9 -46 -19z"/>
<path d="M274 500 c-21 -8 -54 -46 -54 -62 0 -16 46 -7 63 12 29 34 87 21 87
-20 0 -9 -16 -30 -35 -47 -44 -39 -49 -83 -10 -83 18 0 25 5 25 19 0 11 14 29
31 41 17 13 34 33 39 46 26 68 -66 127 -146 94z"/>
<path d="M450 486 c0 -15 7 -26 20 -29 16 -4 20 -14 20 -49 0 -24 7 -54 16
-66 14 -20 14 -24 0 -44 -9 -12 -16 -40 -16 -61 0 -30 -4 -40 -20 -44 -13 -3
-20 -14 -20 -29 0 -19 5 -24 25 -24 41 0 65 33 65 90 0 39 4 53 20 62 11 7 20
20 20 28 0 8 -9 21 -20 28 -16 10 -20 23 -20 67 0 62 -22 95 -65 95 -20 0 -25
-5 -25 -24z"/>
<path d="M300 250 c0 -25 4 -30 25 -30 21 0 25 5 25 30 0 25 -4 30 -25 30 -21
0 -25 -5 -25 -30z"/>
</g>
</svg>
